<mxfile host="65bd71144e">
    <diagram id="V-oQGRU9Uytk7a6Jkdds" name="Page-1">
        <mxGraphModel dx="1074" dy="481" grid="1" gridSize="10" guides="1" tooltips="1" connect="1" arrows="1" fold="1" page="1" pageScale="1" pageWidth="850" pageHeight="1100" math="0" shadow="0">
            <root>
                <mxCell id="0"/>
                <mxCell id="1" parent="0"/>
                <mxCell id="r1xYhyBwvBf0_gYA-d0X-1" value="posgresql" style="shape=cylinder3;whiteSpace=wrap;html=1;boundedLbl=1;backgroundOutline=1;size=15;" parent="1" vertex="1">
                    <mxGeometry x="125" y="540" width="60" height="80" as="geometry"/>
                </mxCell>
                <mxCell id="r1xYhyBwvBf0_gYA-d0X-3" value="" style="verticalLabelPosition=bottom;html=1;verticalAlign=top;align=center;strokeColor=none;fillColor=#00BEF2;shape=mxgraph.azure.computer;pointerEvents=1;" parent="1" vertex="1">
                    <mxGeometry x="670" y="96.5" width="50" height="45" as="geometry"/>
                </mxCell>
                <mxCell id="r1xYhyBwvBf0_gYA-d0X-4" value="&lt;font style=&quot;font-size: 15px;&quot;&gt;הכנסה למאגר&lt;/font&gt;" style="shape=flexArrow;endArrow=classic;html=1;rounded=0;" parent="1" edge="1">
                    <mxGeometry x="-0.2093" y="-20" width="50" height="50" relative="1" as="geometry">
                        <mxPoint x="640" y="120" as="sourcePoint"/>
                        <mxPoint x="170" y="310" as="targetPoint"/>
                        <mxPoint as="offset"/>
                    </mxGeometry>
                </mxCell>
                <mxCell id="r1xYhyBwvBf0_gYA-d0X-5" value="" style="sketch=0;html=1;dashed=0;whitespace=wrap;fillColor=#2875E2;strokeColor=#ffffff;points=[[0.005,0.63,0],[0.1,0.2,0],[0.9,0.2,0],[0.5,0,0],[0.995,0.63,0],[0.72,0.99,0],[0.5,1,0],[0.28,0.99,0]];shape=mxgraph.kubernetes.icon;prIcon=api;fontSize=15;" parent="1" vertex="1">
                    <mxGeometry x="130" y="320" width="50" height="48" as="geometry"/>
                </mxCell>
                <mxCell id="r1xYhyBwvBf0_gYA-d0X-6" value="" style="shape=flexArrow;endArrow=classic;startArrow=classic;html=1;rounded=0;fontSize=15;width=4;endSize=7.67;" parent="1" edge="1">
                    <mxGeometry width="100" height="100" relative="1" as="geometry">
                        <mxPoint x="154.5" y="380" as="sourcePoint"/>
                        <mxPoint x="154.5" y="510" as="targetPoint"/>
                    </mxGeometry>
                </mxCell>
                <mxCell id="r1xYhyBwvBf0_gYA-d0X-7" value="" style="shape=flexArrow;endArrow=classic;startArrow=classic;html=1;rounded=0;fontSize=15;" parent="1" edge="1">
                    <mxGeometry width="100" height="100" relative="1" as="geometry">
                        <mxPoint x="190" y="340" as="sourcePoint"/>
                        <mxPoint x="660" y="148" as="targetPoint"/>
                    </mxGeometry>
                </mxCell>
                <mxCell id="r1xYhyBwvBf0_gYA-d0X-9" value="שליפה מהמאגר http" style="edgeLabel;html=1;align=center;verticalAlign=middle;resizable=0;points=[];fontSize=15;" parent="r1xYhyBwvBf0_gYA-d0X-7" vertex="1" connectable="0">
                    <mxGeometry x="0.2038" y="-5" relative="1" as="geometry">
                        <mxPoint x="14" y="29" as="offset"/>
                    </mxGeometry>
                </mxCell>
                <mxCell id="r1xYhyBwvBf0_gYA-d0X-12" value="קריאה מתמונות&amp;nbsp;&lt;br&gt;http" style="shape=flexArrow;endArrow=classic;startArrow=classic;html=1;rounded=0;fontSize=15;" parent="1" edge="1">
                    <mxGeometry x="0.0787" y="-75" width="100" height="100" relative="1" as="geometry">
                        <mxPoint x="694.5" y="336" as="sourcePoint"/>
                        <mxPoint x="694.5" y="158" as="targetPoint"/>
                        <Array as="points">
                            <mxPoint x="694.5" y="256"/>
                        </Array>
                        <mxPoint x="1" as="offset"/>
                    </mxGeometry>
                </mxCell>
                <mxCell id="r1xYhyBwvBf0_gYA-d0X-13" value="" style="outlineConnect=0;dashed=0;verticalLabelPosition=bottom;verticalAlign=top;align=center;html=1;shape=mxgraph.aws3.machine_learning;fillColor=#2E73B8;gradientColor=none;fontSize=15;" parent="1" vertex="1">
                    <mxGeometry x="656.75" y="360" width="76.5" height="93" as="geometry"/>
                </mxCell>
                <mxCell id="r1xYhyBwvBf0_gYA-d0X-14" value="file db" style="shape=cylinder3;whiteSpace=wrap;html=1;boundedLbl=1;backgroundOutline=1;size=15;fontSize=15;" parent="1" vertex="1">
                    <mxGeometry x="290" y="540" width="60" height="80" as="geometry"/>
                </mxCell>
                <mxCell id="r1xYhyBwvBf0_gYA-d0X-15" value="" style="shape=flexArrow;endArrow=classic;startArrow=classic;html=1;rounded=0;fontSize=15;" parent="1" edge="1">
                    <mxGeometry width="100" height="100" relative="1" as="geometry">
                        <mxPoint x="180" y="370" as="sourcePoint"/>
                        <mxPoint x="310" y="520" as="targetPoint"/>
                    </mxGeometry>
                </mxCell>
            </root>
        </mxGraphModel>
    </diagram>
</mxfile>